<svg width="77" height="88" viewBox="0 0 77 88" fill="none" xmlns="http://www.w3.org/2000/svg">
<path fill-rule="evenodd" clip-rule="evenodd" d="M31.7034 83.2918C32.5589 83.2087 33.4714 83.2475 34.3284 83.3054C38.1783 83.5661 41.8773 83.4829 45.7249 83.2488C44.8104 83.855 43.8309 84.4361 42.8928 85.0095C41.3931 85.894 40.0334 86.677 38.4866 87.4841L31.7034 83.2918ZM34.9768 42.1961C37.7357 42.4257 40.522 42.4054 43.2444 42.6453C59.1717 44.0525 64.2165 65.2221 52.177 75.3416C45.3026 81.1191 33.1618 78.8318 24.8557 77.867L23.0667 76.3171L19.7073 72.9138C25.579 74.2561 39.6151 76.0877 44.8743 74.7244C55.3007 72.021 58.386 58.6175 51.1213 50.4197C45.5762 44.1621 34.1691 48.3684 33.7131 44.0242C33.9806 43.0714 34.2957 42.855 34.9768 42.1961ZM5.86744 6.88843C2.07687 18.7394 3.59218 30.5909 11.7307 40.1209C18.9884 48.6194 30.9668 51.4371 41.4583 51.4285C51.8628 51.4199 53.5475 67.1167 43.6135 69.8464C40.787 70.6336 35.755 70.0255 32.7932 69.7615C32.1203 68.793 31.6842 68.2164 32.0608 67.0252C33.847 64.6924 41.2018 67.3827 44.1243 65.3328C46.6622 64.0123 47.1898 60.3637 45.8713 57.9509C44.5622 55.5558 42.2628 55.369 39.9036 55.3621C26.0728 55.3219 11.8233 49.7239 4.71802 36.6746C-0.00994614 27.9911 -1.25279 18.2815 1.29908 8.63648L5.61353 6.62183L5.86744 6.88843ZM11.092 61.7517C12.9596 61.8405 16.7082 63.2697 18.7698 63.5877C21.4599 64.0027 24.3515 64.736 27.0471 65.2351C27.3502 65.292 27.8875 65.9856 28.0754 66.2459C28.3312 67.1721 28.1572 67.527 27.928 68.4636C25.6709 69.567 17.3343 67.2678 14.4944 66.6189C13.1835 65.016 12.2232 63.4882 11.092 61.7517ZM18.1663 19.5525C22.8274 19.096 20.7876 28.347 29.2297 31.4304C39.4717 35.1716 48.0829 31.4943 56.9788 38.7527C63.9981 44.4799 66.3839 51.0515 67.6135 59.9461C66.6038 61.6683 65.5365 63.3227 64.4651 65.0027L62.7522 67.4109C64.8967 60.001 63.3321 53.3989 59.4309 46.9841C50.4168 32.1631 34.3918 42.1184 23.0901 32.0359C20.6628 29.8705 15.4391 22.901 18.1663 19.5525ZM2.96509 43.363C3.67493 43.9969 5.64527 46.4008 6.47583 47.2859C9.55842 50.5294 13.221 53.1129 17.2561 54.8923C24.5296 58.0269 32.7221 58.8437 40.469 59.0418C41.2321 59.0612 41.5698 59.3944 42.0667 59.8962C42.3172 60.792 42.2509 60.8684 41.9876 61.8045C40.3878 62.6603 37.2758 62.4539 35.4417 62.3328C25.5127 61.7692 15.8081 59.0383 6.95826 54.3162C5.30862 51.0306 3.92547 46.9261 2.96509 43.363ZM62.3879 32.95C66.3465 32.9558 71.6837 43.0917 73.2229 46.6043C72.8181 48.1225 71.9968 50.2839 71.4661 51.8142L71.3108 51.992L71.0364 51.7429C69.7906 47.3019 67.6269 43.1978 64.6975 39.7195C63.6859 38.5193 61.1974 36.1228 61.1604 34.738C61.4317 33.8116 61.724 33.6253 62.3879 32.95ZM17.2903 2.66675C17.7362 2.61626 17.5267 2.57191 17.9202 2.80347C16.7365 5.14613 14.8467 7.20539 13.887 9.80347C10.2643 19.6132 13.0589 30.6358 21.178 37.0095C23.9426 39.18 29.2291 40.2338 30.1965 42.6248C30.0494 44.2783 29.4724 44.5783 27.971 44.6834C18.1572 41.1392 11.8277 35.6512 9.27369 24.6921C7.56209 17.3473 8.83047 10.4448 12.6282 4.03882L17.2903 2.66675ZM69.9182 6.17261C70.8835 6.48174 72.5559 7.27907 73.5393 7.71265C73.4527 8.09508 73.3616 8.47699 73.2669 8.85718C71.5651 15.6457 68.5131 18.9363 62.9485 22.3552C68.4697 25.4943 72.15 28.586 76.012 33.6648C75.7915 35.8772 75.5222 37.2528 75.0735 39.4148C70.3811 31.8772 67.8465 29.0689 59.9622 25.1375C54.4301 22.5433 48.6638 21.6765 42.6975 20.9324C40.5597 20.6658 35.0744 20.7843 33.5618 19.3308C32.953 17.8736 33.9726 16.5303 34.8596 16.5925C37.4617 16.7752 41.8605 17.4979 44.4876 17.8308C47.0412 18.4682 50.0854 18.4807 52.6116 19.0584C61.5744 21.1086 68.2753 15.9916 69.9182 6.17261ZM61.3733 3.23902C62.5837 3.55648 64.0169 4.09066 65.2249 4.50562C63.5684 16.6396 56.0096 15.4641 46.9456 14.0798C44.0845 13.6579 41.2122 13.3178 38.3333 13.0593C34.1843 12.6722 30.4683 12.4726 29.4631 17.9666C29.29 18.9131 29.5435 20.4557 30.2034 21.1726C34.5471 25.8878 42.0302 24.0704 47.6399 25.3552C50.6118 26.0304 56.6874 27.0287 58.5403 29.655C58.984 30.2844 58.7255 31.0561 58.6106 31.7302C58.1704 32.0683 57.3587 32.5952 56.8215 32.364C50.9193 29.8237 46.5739 28.4905 40.0715 28.5466C34.1802 28.5976 25.0067 26.4036 25.6946 18.2908C27.5697 -3.81414 61.4402 23.1371 61.3733 3.23902ZM76.5032 14.5271C77.3215 15.8218 76.8982 24.7554 76.8303 26.8904L74.9993 24.9109C70.6428 20.7946 74.0844 19.238 76.5032 14.5271ZM32.0706 0.20191C39.205 -0.530749 48.623 0.827574 55.5745 2.71168C56.6378 2.99976 56.7904 4.83456 56.0686 5.85523C54.7552 6.77527 49.1496 5.22536 47.2356 4.96558C42.7741 4.36081 38.6607 4.10535 34.1643 4.073C23.7784 4.11437 22.8088 14.4055 19.9983 15.325C19.5014 15.4874 19.1113 15.368 18.6643 15.1072C18.2879 14.8875 17.9439 14.456 17.8489 14.0134C17.4718 12.2539 19.2555 9.64008 20.1604 8.27808C23.0359 3.95088 27.1004 1.1399 32.0706 0.20191Z" fill="#060E09"/>
</svg>
